<?xml version="1.0" standalone="no"?>
<!DOCTYPE svg PUBLIC "-//W3C//DTD SVG 20010904//EN"
 "http://www.w3.org/TR/2001/REC-SVG-20010904/DTD/svg10.dtd">
<svg version="1.0" xmlns="http://www.w3.org/2000/svg"
 width="937.000000pt" height="316.000000pt" viewBox="0 0 937.000000 316.000000"
 preserveAspectRatio="xMidYMid meet">

<g transform="translate(0.000000,316.000000) scale(0.100000,-0.100000)"
fill="#000000" stroke="none">
<path d="M8817 3143 c55 -157 327 -173 403 -23 l20 40 -74 0 c-46 0 -84 -6
-102 -15 -16 -8 -33 -15 -39 -15 -5 0 -23 7 -39 15 -17 9 -56 15 -102 15 -66
0 -73 -2 -67 -17z"/>
<path d="M80 1940 l0 -1060 465 0 465 0 0 535 0 535 130 0 130 0 0 -535 0
-535 465 0 465 0 -2 1058 -3 1057 -1057 3 -1058 2 0 -1060z"/>
<path d="M4065 2927 c-106 -36 -162 -83 -212 -180 -24 -46 -27 -63 -28 -153 0
-96 2 -104 35 -170 64 -125 169 -180 329 -172 137 7 238 65 282 163 10 22 17
41 15 42 -1 2 -34 9 -73 16 l-71 13 -17 -29 c-37 -63 -174 -88 -254 -47 -40
20 -74 65 -85 112 l-6 28 252 2 253 3 3 58 c9 182 -117 316 -305 324 -47 2
-94 -2 -118 -10z m195 -142 c30 -16 70 -68 70 -92 0 -10 -41 -13 -170 -13
-129 0 -170 3 -170 13 0 18 34 66 60 84 50 35 150 39 210 8z"/>
<path d="M4940 2931 c-41 -13 -93 -42 -117 -64 l-23 -20 0 25 c0 53 -7 58 -81
58 l-69 0 0 -480 0 -480 80 0 80 0 0 181 0 180 33 -25 c52 -40 101 -56 171
-56 130 0 239 69 294 188 24 50 27 69 27 157 -1 81 -5 109 -23 148 -31 67
-103 141 -165 167 -56 24 -164 35 -207 21z m158 -170 c91 -65 104 -226 24
-311 -87 -91 -234 -71 -289 40 -44 86 -22 221 43 267 43 30 53 33 124 30 50
-2 73 -8 98 -26z"/>
<path d="M6623 2922 c-99 -35 -162 -93 -206 -190 -33 -72 -31 -207 5 -283 35
-76 88 -133 156 -166 51 -25 68 -28 157 -28 89 0 106 3 157 28 31 15 72 45 91
66 33 37 75 126 65 137 -3 3 -36 10 -74 16 -62 11 -69 10 -78 -7 -48 -82 -124
-117 -204 -95 -91 24 -137 100 -130 213 7 115 70 177 180 177 65 0 112 -26
135 -75 9 -19 22 -35 28 -35 22 0 130 23 137 29 13 11 -38 105 -78 143 -83 79
-231 109 -341 70z"/>
<path d="M3080 2595 l0 -335 80 0 80 0 0 265 0 265 135 0 135 0 0 -265 0 -265
80 0 80 0 0 335 0 335 -295 0 -295 0 0 -335z"/>
<path d="M5490 2595 l0 -335 75 0 75 0 0 220 c0 121 3 220 8 219 4 0 50 -60
102 -132 60 -84 103 -133 115 -135 15 -1 41 28 110 124 49 69 95 130 102 136
10 8 13 -34 13 -211 l0 -221 75 0 75 0 0 335 0 336 -82 -3 -82 -3 -101 -140
c-56 -77 -105 -139 -109 -138 -4 1 -46 55 -93 120 -126 174 -113 163 -205 163
l-78 0 0 -335z"/>
<path d="M7190 2595 l0 -335 75 0 74 0 3 133 3 132 35 3 c34 3 38 -1 139 -133
l104 -135 94 0 c73 0 92 3 87 13 -4 6 -58 77 -119 157 -62 80 -118 155 -125
166 -12 20 -5 32 105 165 65 79 123 150 128 157 7 9 -11 12 -84 12 l-94 0
-100 -126 c-96 -121 -100 -125 -135 -122 l-35 3 -3 123 -3 122 -74 0 -75 0 0
-335z"/>
<path d="M7925 2918 c-3 -7 -4 -157 -3 -333 l3 -320 76 -3 76 -3 144 218 144
218 3 -217 2 -218 75 0 75 0 0 335 0 335 -73 0 c-58 0 -77 -4 -89 -17 -8 -10
-73 -107 -144 -216 l-129 -199 -5 214 -5 213 -73 3 c-52 2 -74 -1 -77 -10z"/>
<path d="M8720 2595 l0 -335 78 0 77 0 142 218 143 217 0 -217 0 -218 80 0 80
0 0 335 0 335 -78 0 -78 0 -139 -215 c-77 -118 -143 -215 -147 -215 -5 0 -8
97 -8 215 l0 215 -75 0 -75 0 0 -335z"/>
<path d="M4087 1550 c-105 -27 -193 -97 -236 -189 -22 -48 -26 -69 -26 -151 0
-84 3 -102 28 -152 35 -72 110 -140 185 -168 83 -32 225 -25 300 13 102 53
164 139 182 255 26 159 -63 318 -209 372 -64 25 -169 34 -224 20z m197 -173
c53 -41 70 -80 71 -162 0 -85 -22 -136 -74 -171 -72 -47 -167 -41 -233 14 -41
35 -58 79 -58 154 0 82 28 139 83 173 36 22 51 25 108 23 54 -3 73 -9 103 -31z"/>
<path d="M7097 1550 c-101 -26 -188 -97 -231 -189 -17 -38 -21 -65 -21 -156 0
-100 2 -115 27 -160 32 -60 87 -114 148 -146 40 -21 58 -24 165 -24 111 0 124
2 171 27 70 37 144 122 144 167 0 8 -97 31 -130 31 -9 0 -22 -11 -28 -25 -18
-38 -86 -67 -157 -67 -87 0 -148 37 -174 105 -23 59 -33 57 238 57 l249 0 7
39 c8 49 -8 138 -34 189 -27 53 -101 117 -159 137 -58 20 -165 27 -215 15z
m144 -134 c20 -4 47 -18 61 -34 24 -25 48 -64 48 -76 0 -3 -76 -6 -170 -6
-112 0 -170 4 -170 10 0 22 30 68 55 84 27 18 99 36 125 31 8 -2 31 -6 51 -9z"/>
<path d="M3080 1210 l0 -330 80 0 80 0 0 265 0 266 133 -3 132 -3 3 -262 2
-263 80 0 80 0 0 330 0 330 -295 0 -295 0 0 -330z"/>
<path d="M4730 1523 c-1 -96 -22 -404 -31 -439 -12 -47 -39 -74 -76 -74 -19 0
-23 -7 -28 -47 -13 -96 -18 -88 60 -91 61 -2 76 1 105 20 72 49 105 155 118
380 l7 133 100 0 100 0 3 -262 2 -263 80 0 80 0 0 330 0 330 -260 0 c-241 0
-260 -1 -260 -17z"/>
<path d="M5450 1210 l0 -330 78 0 77 0 142 218 143 217 0 -217 0 -218 75 0 75
0 0 330 0 330 -77 0 -78 -1 -140 -216 -140 -216 -3 217 -2 216 -75 0 -75 0 0
-330z"/>
<path d="M6170 1475 l0 -64 108 -3 107 -3 3 -262 2 -263 80 0 80 0 0 265 0
265 105 0 105 0 0 65 0 65 -295 0 -295 0 0 -65z"/>
<path d="M7583 1508 c74 -101 197 -277 197 -283 0 -3 -47 -80 -105 -170 -58
-90 -105 -167 -105 -170 0 -3 37 -5 83 -5 l82 0 65 105 c36 58 68 105 72 105
4 0 40 -47 80 -105 l73 -104 93 -1 c50 0 92 2 92 5 0 2 -44 66 -98 142 -54 76
-106 150 -115 164 -17 26 -17 26 92 187 l109 162 -88 0 -87 0 -63 -95 c-35
-53 -67 -94 -71 -93 -5 2 -37 44 -72 93 l-63 90 -98 3 -98 3 25 -33z"/>
<path d="M3770 491 c0 -18 44 -41 77 -41 20 0 43 9 60 25 l28 24 -82 1 c-46 0
-83 -4 -83 -9z"/>
<path d="M6213 475 c33 -29 81 -33 115 -9 38 26 25 34 -60 34 l-83 -1 28 -24z"/>
<path d="M6713 430 c-3 -12 -14 -20 -27 -20 -36 0 -88 -35 -108 -71 -46 -85 2
-183 100 -204 23 -5 32 -12 32 -26 0 -14 7 -19 30 -19 22 0 30 5 30 18 0 13
13 21 46 30 55 15 101 59 110 107 13 72 -39 147 -113 161 -23 4 -37 13 -40 25
-7 27 -53 26 -60 -1z m-3 -159 c0 -87 0 -89 -22 -84 -41 10 -68 43 -68 83 0
39 13 61 45 78 41 23 45 16 45 -77z m131 60 c32 -33 38 -74 14 -108 -15 -22
-69 -46 -79 -36 -3 4 -6 44 -6 90 0 77 1 83 21 83 11 0 34 -13 50 -29z"/>
<path d="M3020 380 c0 -71 19 -123 50 -140 14 -7 50 -11 91 -8 l69 4 0 -68 c0
-66 1 -68 25 -68 l25 0 0 170 0 170 -25 0 c-24 0 -25 -2 -25 -70 0 -78 -10
-90 -74 -90 -55 0 -76 27 -76 100 l0 60 -30 0 -30 0 0 -60z"/>
<path d="M3430 358 c-18 -46 -47 -123 -65 -171 l-33 -88 30 3 c26 3 33 9 45
43 7 22 17 43 21 47 4 3 33 8 66 9 l59 3 19 -52 c17 -46 23 -52 49 -52 16 0
29 3 29 8 -1 4 -29 79 -63 167 -61 156 -63 160 -94 163 -30 3 -32 1 -63 -80z
m84 -45 c9 -26 16 -50 16 -55 0 -10 -67 -11 -74 0 -6 10 26 102 35 102 4 0 14
-21 23 -47z"/>
<path d="M3700 271 l0 -171 28 0 c23 0 36 14 90 93 35 50 74 106 87 122 l25
30 0 -122 0 -123 25 0 25 0 0 170 0 170 -25 0 c-20 0 -39 -22 -107 -121 l-83
-121 -5 119 -5 118 -27 3 -28 3 0 -170z"/>
<path d="M4070 271 l0 -171 30 0 30 0 0 75 c0 100 17 100 89 0 50 -68 58 -75
89 -75 38 0 40 -4 -35 96 -29 39 -53 76 -53 83 0 7 25 43 55 80 30 38 55 71
55 75 0 3 -13 6 -29 6 -24 0 -39 -12 -81 -65 -35 -44 -59 -65 -73 -65 -20 0
-22 5 -22 62 0 61 -1 63 -27 66 l-28 3 0 -170z"/>
<path d="M4449 418 c-56 -32 -82 -86 -77 -162 6 -102 66 -158 168 -158 137 0
212 147 138 270 -42 68 -155 93 -229 50z m139 -42 c69 -36 78 -157 15 -205
-28 -23 -91 -28 -124 -11 -29 16 -49 63 -49 116 0 39 5 51 34 80 38 38 77 44
124 20z"/>
<path d="M4770 269 l0 -171 101 4 c96 3 102 4 125 31 33 38 32 90 -2 124 -22
22 -24 27 -11 42 25 27 29 58 13 89 -20 38 -60 52 -152 52 l-74 0 0 -171z
m164 105 c39 -38 11 -74 -56 -74 l-48 0 0 45 0 45 44 0 c27 0 51 -6 60 -16z
m7 -134 c22 -12 26 -59 7 -78 -7 -7 -36 -12 -65 -12 l-53 0 0 50 0 50 46 0
c25 0 54 -5 65 -10z"/>
<path d="M5155 426 c-83 -37 -118 -151 -74 -242 27 -57 74 -86 142 -86 64 -1
111 21 137 65 26 41 25 44 -7 52 -18 4 -29 2 -32 -6 -11 -33 -51 -59 -90 -59
-61 0 -102 41 -108 106 -10 116 97 176 175 98 31 -31 38 -34 60 -25 l24 11
-21 33 c-39 61 -133 85 -206 53z"/>
<path d="M5440 270 l0 -170 30 0 30 0 0 75 c0 101 17 101 91 0 48 -66 58 -74
87 -75 17 0 32 2 32 5 0 3 -27 41 -60 86 -33 44 -60 84 -60 89 0 5 21 35 48
67 83 101 79 93 39 93 -31 0 -40 -7 -83 -65 -34 -45 -56 -64 -71 -65 -22 0
-23 4 -23 65 l0 65 -30 0 -30 0 0 -170z"/>
<path d="M5760 271 l0 -171 28 0 c23 0 37 16 102 111 41 61 81 115 87 121 10
8 13 -15 13 -111 l0 -121 25 0 25 0 0 170 0 170 -25 0 c-20 0 -39 -22 -107
-121 l-83 -121 -5 119 -5 118 -27 3 -28 3 0 -170z"/>
<path d="M6130 270 l0 -170 25 0 c20 0 39 22 107 120 l83 119 3 -119 3 -120
29 0 30 0 0 170 0 170 -24 0 c-26 0 -73 -55 -151 -177 -22 -35 -43 -63 -47
-63 -5 0 -8 54 -8 120 l0 120 -25 0 -25 0 0 -170z"/>
<path d="M6987 433 c-4 -3 -7 -80 -7 -170 l0 -163 29 0 c25 0 38 14 112 121
l84 121 3 -121 3 -121 30 0 29 0 -2 168 -3 167 -25 3 c-22 2 -36 -14 -110
-120 l-85 -123 -3 123 c-3 120 -3 122 -26 122 -12 0 -26 -3 -29 -7z"/>
<path d="M7377 318 c-6 -140 -11 -156 -43 -169 -14 -5 -24 -17 -24 -28 0 -41
79 -28 99 17 7 14 16 72 21 128 4 56 11 107 15 113 3 6 28 11 55 11 62 0 62
-2 58 -168 l-3 -122 28 0 27 0 0 170 0 170 -113 0 -114 0 -6 -122z"/>
<path d="M7700 270 l0 -170 28 0 c23 1 38 17 107 119 l80 119 3 -119 3 -119
29 0 30 0 0 171 0 170 -27 -3 c-23 -2 -42 -24 -108 -120 -44 -65 -83 -117 -87
-118 -5 0 -8 54 -8 120 l0 120 -25 0 -25 0 0 -170z"/>
<path d="M8157 433 c-3 -5 -28 -69 -56 -143 -29 -74 -56 -145 -61 -158 -14
-32 -14 -32 19 -32 25 0 31 5 42 38 22 68 21 68 89 62 l62 -5 17 -45 c16 -45
17 -45 71 -51 30 -3 65 -2 78 3 34 12 51 65 60 181 l7 102 55 0 55 0 3 -142 3
-143 29 0 30 0 0 170 0 170 -114 0 -113 0 -7 -61 c-3 -34 -6 -85 -6 -114 0
-69 -16 -115 -41 -115 -12 0 -19 -7 -19 -20 0 -11 -3 -20 -7 -20 -7 0 -71 160
-123 303 -7 21 -16 27 -39 27 -16 0 -32 -3 -34 -7z m56 -129 c9 -23 13 -44 10
-48 -12 -11 -73 -6 -73 6 0 24 33 99 40 91 4 -4 14 -27 23 -49z"/>
</g>
</svg>
